<svg width="177" height="447" viewBox="0 0 177 447" fill="none" xmlns="http://www.w3.org/2000/svg">
<g filter="url(#filter0_f_526_18)">
<path d="M86.7166 95.6187C100.306 74.791 126.662 50.6406 126.662 50.6406V369.659L81.4116 396.292L121.199 312.136C121.199 312.136 108.373 308.533 100.378 297.595C91.1606 284.988 88.1086 274.385 86.7166 256.051C85.4027 238.747 86.7166 211.471 86.7166 211.471L54.4089 281.855C54.4089 281.855 77.1387 196.781 81.4116 177.967C85.6844 159.154 94.0108 130.939 94.0108 130.939L50.2451 182.709C50.2451 182.709 67.8863 124.479 86.7166 95.6187Z" fill="url(#paint0_linear_526_18)" fill-opacity="0.6"/>
</g>
<defs>
<filter id="filter0_f_526_18" x="0.245117" y="0.640625" width="176.417" height="445.652" filterUnits="userSpaceOnUse" color-interpolation-filters="sRGB">
<feFlood flood-opacity="0" result="BackgroundImageFix"/>
<feBlend mode="normal" in="SourceGraphic" in2="BackgroundImageFix" result="shape"/>
<feGaussianBlur stdDeviation="25" result="effect1_foregroundBlur_526_18"/>
</filter>
<linearGradient id="paint0_linear_526_18" x1="74.7048" y1="295.628" x2="173.294" y2="256.595" gradientUnits="userSpaceOnUse">
<stop stop-color="#D1F9CD" stop-opacity="0.3"/>
<stop offset="1" stop-color="#B9FDB1" stop-opacity="0.5"/>
</linearGradient>
</defs>
</svg>
